# xmcd
#
# Track frame offsets:
#        150
#        51190
#        88502
#        111360
#        128840
#        148082
#        174010
#
# Disc length: 2776 seconds
#
# Revision: 0
# Processed by: cddbd v1.5.1PL0 Copyright (c) Steve Scherf et al.
# Submitted via: ExactAudioCopy v0.95a5
#
DISCID=590ad607
DTITLE=Crusaders - Soul Shadows
DYEAR=1900
DGENRE=Blues
TTITLE0=Street Life
TTITLE1=Soul Shadows
TTITLE2=I'm So Gland I'm Standing Here Today
TTITLE3=Gotta Lotta Shakalada
TTITLE4=New Moves
TTITLE5=Burnin' Up The Carnival
TTITLE6=Street Life (Live)
EXTD=
EXTT0=
EXTT1=
EXTT2=
EXTT3=
EXTT4=
EXTT5=
EXTT6=
PLAYORDER=
